<?xml version="1.0" encoding="utf-8"?>
<!-- Generator: Adobe Illustrator 20.0.0, SVG Export Plug-In . SVG Version: 6.00 Build 0)  -->
<svg version="1.1" id="Layer_1" xmlns="http://www.w3.org/2000/svg" xmlns:xlink="http://www.w3.org/1999/xlink" x="0px" y="0px"
	 viewBox="0 0 230 230" style="enable-background:new 0 0 230 230;" xml:space="preserve">
<style type="text/css">
	.st0{fill:#FFFFFF;}
	.st1{fill:#2979FF;}
</style>
<circle id="XMLID_3_" class="st0" cx="115" cy="115" r="115"/>
<path id="XMLID_23_" class="st1" d="M182.8,79.6c-6.2-0.3-11.5,4.5-11.8,10.7c-0.1,2.9,0.8,5.6,2.5,7.6l-20.3,21.7
	c-1.6-1-3.4-1.6-5.4-1.7c-4-0.2-7.6,1.8-9.8,4.8L97.8,98.1c0.1-0.5,0.2-1,0.2-1.5c0.3-6.2-4.5-11.5-10.7-11.8s-11.5,4.5-11.8,10.7
	c-0.1,2.9,0.9,5.7,2.6,7.8l-24,26.7c-1.7-1.2-3.6-1.9-5.8-2c-6.2-0.3-11.5,4.5-11.8,10.7s4.5,11.5,10.7,11.8S58.7,146,59,139.8
	c0.1-2.9-0.9-5.7-2.6-7.8l24.2-26.7c1.7,1.2,3.6,1.9,5.8,2c4.6,0.2,8.7-2.4,10.6-6.3l39.8,24.4c-0.3,1-0.6,2-0.6,3.1
	c-0.3,6.2,4.5,11.5,10.7,11.8s11.5-4.5,11.8-10.7c0.2-3.1-1-6-2.9-8.1L176,99.9c1.7,1.2,3.7,2,5.9,2.1c6.2,0.3,11.5-4.5,11.8-10.7
	C193.8,85.2,189,79.9,182.8,79.6z M56.6,139.6c-0.2,4.9-4.4,8.7-9.3,8.4c-4.9-0.2-8.7-4.4-8.4-9.3c0.2-4.9,4.4-8.7,9.3-8.4
	C53.1,130.6,56.8,134.7,56.6,139.6z M86.5,104.9c-4.9-0.2-8.7-4.4-8.4-9.3c0.2-4.9,4.4-8.7,9.3-8.4c4.9,0.2,8.7,4.4,8.4,9.3
	C95.5,101.4,91.4,105.2,86.5,104.9z M156.2,129.6c-0.2,4.9-4.4,8.7-9.3,8.4c-4.9-0.2-8.7-4.4-8.4-9.3c0.2-4.9,4.4-8.7,9.3-8.4
	C152.7,120.5,156.4,124.7,156.2,129.6z M181.8,99.7c-4.9-0.2-8.7-4.4-8.4-9.3c0.2-4.9,4.4-8.7,9.3-8.4c4.9,0.2,8.7,4.4,8.4,9.3
	C190.9,96.1,186.7,99.9,181.8,99.7z"/>
</svg>
