<?xml version="1.0" standalone="no"?>
<!DOCTYPE svg PUBLIC "-//W3C//DTD SVG 20010904//EN"
 "http://www.w3.org/TR/2001/REC-SVG-20010904/DTD/svg10.dtd">
<svg version="1.0" xmlns="http://www.w3.org/2000/svg"
 width="700.000000pt" height="700.000000pt" viewBox="0 0 700.000000 700.000000"
 preserveAspectRatio="xMidYMid meet">
<metadata>
Created by potrace 1.11, written by Peter Selinger 2001-2013
</metadata>
<g transform="translate(0.000000,700.000000) scale(0.100000,-0.100000)"
fill="#000000" stroke="none">
<path d="M3310 6264 c-595 -51 -1110 -255 -1560 -618 -97 -77 -319 -299 -396
-396 -331 -411 -531 -880 -605 -1420 -17 -125 -17 -535 0 -660 74 -540 274
-1009 605 -1420 77 -97 299 -319 396 -396 411 -331 880 -531 1420 -605 125
-17 535 -17 660 0 540 74 1009 274 1420 605 97 77 319 299 396 396 331 411
531 880 605 1420 17 125 17 535 0 660 -74 540 -274 1009 -605 1420 -77 97
-299 319 -396 396 -403 325 -862 524 -1384 600 -98 14 -465 26 -556 18z m447
-779 c899 -118 1610 -829 1728 -1728 142 -1090 -635 -2098 -1728 -2242 -1090
-142 -2098 635 -2242 1728 -131 1006 520 1955 1511 2202 219 54 502 70 731 40z"/>
<path d="M4617 4107 c-50 -16 -100 -58 -120 -100 -23 -47 -21 -133 2 -177 l19
-35 -128 -135 c-70 -74 -149 -159 -176 -188 l-49 -53 -37 15 c-68 29 -144 13
-200 -41 -14 -14 -30 -23 -35 -21 -4 3 -162 99 -350 214 l-343 209 0 43 c0
114 -111 204 -227 183 -51 -10 -74 -24 -111 -65 -55 -63 -64 -151 -23 -222
l18 -30 -170 -190 c-93 -104 -187 -208 -208 -231 l-39 -42 -34 14 c-80 33
-180 8 -230 -57 -62 -82 -55 -182 18 -254 89 -89 215 -80 292 21 38 51 46 143
16 201 l-20 40 210 232 210 232 30 -16 c38 -20 112 -20 160 0 20 9 50 32 66
52 l31 37 343 -211 343 -211 -3 -49 c-6 -85 37 -158 113 -193 166 -77 335 100
251 264 l-23 47 105 112 c58 62 137 146 176 186 l70 74 33 -16 c39 -18 109
-21 150 -5 63 24 122 109 123 177 0 80 -64 163 -144 187 -57 17 -59 17 -109 2z
m145 -62 c40 -30 58 -68 58 -122 0 -88 -63 -153 -150 -153 -140 0 -203 171
-98 266 33 30 46 34 108 31 36 -2 65 -10 82 -22z m-1660 -90 c80 -60 83 -171
7 -240 -34 -31 -46 -35 -92 -35 -93 0 -157 61 -157 150 0 54 27 102 72 131 42
26 131 23 170 -6z m1028 -567 c88 -45 113 -157 52 -230 -71 -84 -204 -72 -252
22 -34 68 -23 136 32 187 50 47 103 54 168 21z m-1722 -178 c89 -54 97 -175
17 -250 -23 -21 -36 -25 -93 -25 -75 0 -108 17 -138 71 -26 48 -16 136 22 175
16 17 38 35 49 39 37 16 109 11 143 -10z"/>
</g>
</svg>
